<?xml version="1.0" encoding="utf-8"?>
<!-- Generator: Adobe Illustrator 27.0.0, SVG Export Plug-In . SVG Version: 6.00 Build 0)  -->
<svg version="1.1" id="Layer_1" xmlns="http://www.w3.org/2000/svg" xmlns:xlink="http://www.w3.org/1999/xlink" x="0px" y="0px"
	 viewBox="0 0 70 70" style="enable-background:new 0 0 70 70;" xml:space="preserve">
<style type="text/css">
	.st0{filter:url(#Adobe_OpacityMaskFilter);}
	.st1{fill:#FFFFFF;}
	.st2{mask:url(#icon-b_00000005984745118813016240000009190329925825245600_);}
	.st3{fill:#C300E5;}
	.st4{fill:#FFFFFF;fill-opacity:0.383;}
	.st5{opacity:0.165;enable-background:new    ;}
	.st6{fill-opacity:0.383;}
	.st7{display:none;}
	.st8{display:inline;}
	.st9{clip-path:url(#SVGID_00000152254271659859360220000005257236545505416340_);}
</style>
<g>
	<defs>
		<filter id="Adobe_OpacityMaskFilter" filterUnits="userSpaceOnUse" x="0" y="0" width="70" height="70">
			<feColorMatrix  type="matrix" values="1 0 0 0 0  0 1 0 0 0  0 0 1 0 0  0 0 0 1 0"/>
		</filter>
	</defs>
	
		<mask maskUnits="userSpaceOnUse" x="0" y="0" width="70" height="70" id="icon-b_00000005984745118813016240000009190329925825245600_">
		<g class="st0">
			<path id="icon-a_00000008837750486741388830000017665391778361929407_" class="st1" d="M4,0h61c4,0,5,1,5,5v60c0,4-1,5-5,5H4
				c-3,0-4-1-4-5V5C0,1,1,0,4,0z"/>
		</g>
	</mask>
	<g class="st2">
		<path class="st3" d="M0,0h70v70H0V0z"/>
		<path class="st4" d="M4,1h61c2.7,0,4.3,0.7,5,2V0H0v3C0.7,1.7,2,1,4,1z"/>
		<path class="st5" d="M26.4,11.5l9.2,1.1L54,18.2l4,6.1v19.6L33.4,69H4c-2,0-4-0.1-4-4.1V38.1l12.3-14L26.4,11.5z"/>
		<path class="st6" d="M4,69h61c2.7,0,4.3-1,5-3v4H0v-4C0.7,68,2,69,4,69z"/>
		<g class="st7">
			<g id="Layer_1_1_" class="st8">
				<path class="st1" d="M35,8.3C20.2,8.3,8.3,20.2,8.3,35s12,26.7,26.7,26.7s26.7-12,26.7-26.7S49.8,8.3,35,8.3z M35,19.3
					c4.3,0,7.8,3.5,7.8,7.8s-3.5,7.8-7.8,7.8s-7.8-3.5-7.8-7.8S30.7,19.3,35,19.3z M47.6,46.2c0,2.5-2,4.5-4.5,4.5H26.9
					c-2.5,0-4.5-2-4.5-4.5v-9.6c0-2.5,2-4.5,4.5-4.5h0.4c1.6,2.6,4.4,4.3,7.7,4.3s6.1-1.7,7.7-4.3H43c2.5,0,4.5,2,4.5,4.5L47.6,46.2
					L47.6,46.2z"/>
			</g>
			<g id="Layer_2_00000072249095065691705880000011572807881374007688_" class="st8">
				<g>
					<path class="st1" d="M48,8.4H15.3c-3.2,0-5.9,2.6-5.9,5.9v41.5c0,3.2,2.6,5.9,5.9,5.9H48c3.2,0,5.9-2.6,5.9-5.9V14.3
						C53.8,11,51.2,8.4,48,8.4z M31.6,19.3c4.3,0,7.8,3.5,7.8,7.8s-3.5,7.8-7.8,7.8c-4.3,0-7.8-3.5-7.8-7.8
						C23.8,22.8,27.3,19.3,31.6,19.3z M44.2,46.2c0,2.5-2,4.5-4.5,4.5H23.6c-2.5,0-4.5-2-4.5-4.5v-9.6c0-2.5,2-4.5,4.5-4.5h0.4
						c1.6,2.6,4.4,4.3,7.7,4.3s6.1-1.7,7.7-4.3h0.4c2.5,0,4.5,2,4.5,4.5L44.2,46.2L44.2,46.2z"/>
					<g>
						<g>
							<g>
								<g>
									<rect id="SVGID_2_" x="53.4" y="18.2" class="st1" width="7.2" height="32.2"/>
								</g>
								<g>
									<g>
										<g>
											<g>
												<defs>
													<rect id="SVGID_1_" x="53.4" y="18.2" width="7.2" height="32.2"/>
												</defs>
												<clipPath id="SVGID_00000047047195003182531890000001787036410023193220_">
													<use xlink:href="#SVGID_1_"  style="overflow:visible;"/>
												</clipPath>
												<g style="clip-path:url(#SVGID_00000047047195003182531890000001787036410023193220_);">
													<path class="st1" d="M59.4,19.1H51c-0.6,0-1.2,0.5-1.2,1.2v5.4c0,0.6,0.5,1.2,1.2,1.2h8.4c0.6,0,1.2-0.5,1.2-1.2v-5.4
														C60.6,19.6,60.1,19.1,59.4,19.1z"/>
													<path class="st1" d="M56.2,42.3h-8.4c-0.6,0-1.2,0.5-1.2,1.2v5.4c0,0.6,0.5,1.2,1.2,1.2h8.4c0.6,0,1.2-0.5,1.2-1.2
														v-5.4C57.4,42.8,56.8,42.3,56.2,42.3z"/>
													<path class="st1" d="M58.2,30.7h-8.4c-0.6,0-1.2,0.5-1.2,1.2v5.4c0,0.6,0.5,1.2,1.2,1.2h8.4c0.6,0,1.2-0.5,1.2-1.2
														v-5.4C59.4,31.2,58.8,30.7,58.2,30.7z"/>
												</g>
											</g>
										</g>
									</g>
								</g>
							</g>
						</g>
					</g>
				</g>
			</g>
			<g id="Layer_3" class="st8">
				<g>
					<path class="st1" d="M60.7,17.5h-2.4c-0.4,2.6-2.6,4.6-5.3,4.6c-2.7,0-4.9-2-5.3-4.6H22.3c-0.4,2.6-2.6,4.6-5.3,4.6
						s-4.9-2-5.3-4.6H9.3c-0.6,0-1.2,0.5-1.2,1.2v37.7c0,0.6,0.5,1.2,1.2,1.2h51.3c0.6,0,1.2-0.5,1.2-1.2V18.7
						C61.8,18.1,61.3,17.5,60.7,17.5z M23.3,25.5c3.3,0,6,2.7,6,6s-2.7,6-6,6s-6-2.7-6-6C17.3,28.2,20,25.5,23.3,25.5z M33,46.2
						c0,1.9-1.6,3.5-3.5,3.5H17.1c-1.9,0-3.5-1.6-3.5-3.5v-7.4c0-1.9,1.6-3.5,3.5-3.5h0.3c1.2,2,3.4,3.3,5.9,3.3s4.7-1.3,5.9-3.3
						h0.3c1.9,0,3.5,1.6,3.5,3.5L33,46.2L33,46.2z M56.3,45.8c0,0.6-0.5,1.2-1.2,1.2H37c-0.6,0-1.2-0.5-1.2-1.2V45
						c0-0.6,0.5-1.2,1.2-1.2h18.2c0.6,0,1.2,0.5,1.2,1.2V45.8z M56.3,38.2c0,0.6-0.5,1.2-1.2,1.2H37c-0.6,0-1.2-0.5-1.2-1.2v-0.8
						c0-0.6,0.5-1.2,1.2-1.2h18.2c0.6,0,1.2,0.5,1.2,1.2V38.2z M56.3,30.5c0,0.6-0.5,1.2-1.2,1.2H37c-0.6,0-1.2-0.5-1.2-1.2v-0.8
						c0-0.6,0.5-1.2,1.2-1.2h18.2c0.6,0,1.2,0.5,1.2,1.2V30.5z"/>
					<path class="st1" d="M17,12.4c-2.4,0-4.3,1.9-4.3,4.3s1.9,4.3,4.3,4.3s4.3-1.9,4.3-4.3S19.4,12.4,17,12.4z M17,19.4
						c-1.5,0-2.8-1.2-2.8-2.8s1.2-2.8,2.8-2.8s2.8,1.2,2.8,2.8C19.8,18.2,18.5,19.4,17,19.4z"/>
					<path class="st1" d="M53.1,12.4c-2.4,0-4.3,1.9-4.3,4.3s1.9,4.3,4.3,4.3s4.3-1.9,4.3-4.3C57.4,14.3,55.5,12.4,53.1,12.4z
						 M53.1,19.4c-1.5,0-2.8-1.2-2.8-2.8s1.2-2.8,2.8-2.8c1.5,0,2.8,1.2,2.8,2.8C55.9,18.2,54.6,19.4,53.1,19.4z"/>
				</g>
			</g>
			<g id="Layer_4" class="st8">
				<g>
					<path class="st1" d="M46.9,26.4h-7.5c-0.5,0-0.9,0.4-0.9,0.9l0,0c0,0.5,0.4,0.9,0.9,0.9h7.5c0.5,0,0.9-0.4,0.9-0.9l0,0
						C47.8,26.8,47.4,26.4,46.9,26.4z"/>
					<path class="st1" d="M46.9,23.2h-7.5c-0.5,0-0.9,0.4-0.9,0.9s0.4,0.9,0.9,0.9h7.5c0.5,0,0.9-0.4,0.9-0.9S47.4,23.2,46.9,23.2z"
						/>
					<path class="st1" d="M35,8.3C20.2,8.3,8.3,20.2,8.3,35s12,26.7,26.7,26.7s26.7-12,26.7-26.7S49.8,8.3,35,8.3z M28.1,27.7
						c3.3,0,6,2.7,6,6s-2.7,6-6,6s-6-2.7-6-6C22,30.4,24.7,27.7,28.1,27.7z M37.9,48.6c0,1.9-1.6,3.5-3.5,3.5H21.8
						c-1.9,0-3.5-1.6-3.5-3.5v-7.5c0-1.9,1.6-3.5,3.5-3.5h0.3c1.2,2,3.4,3.3,6,3.3s4.7-1.3,6-3.3h0.3c1.9,0,3.5,1.6,3.5,3.5V48.6z
						 M52.5,26.5c0,2.1-1.5,3.8-3.3,3.8h-7.3l-7,2.8l2.1-2.8h0c-1.8,0-3.3-1.7-3.3-3.8v-4.8c0-2.1,1.5-3.8,3.3-3.8h12.2
						c1.8,0,3.3,1.7,3.3,3.8V26.5z"/>
					<path class="st1" d="M46.9,20h-7.5c-0.5,0-0.9,0.4-0.9,0.9s0.4,0.9,0.9,0.9h7.5c0.5,0,0.9-0.4,0.9-0.9S47.4,20,46.9,20z"/>
				</g>
			</g>
			<g id="Layer_5" class="st8">
				<path class="st1" d="M34.9,8.2c-14.8,0-26.7,12-26.7,26.7s12,26.7,26.7,26.7s26.7-12,26.7-26.7S49.6,8.2,34.9,8.2z M29.4,22.2
					c4,0,7.2,3.2,7.2,7.2s-3.2,7.2-7.2,7.2s-7.2-3.2-7.2-7.2C22.2,25.4,25.5,22.2,29.4,22.2z M41.1,47.1c0,2.3-1.9,4.2-4.2,4.2H22
					c-2.3,0-4.2-1.9-4.2-4.2v-8.9c0-2.3,1.9-4.2,4.2-4.2h0.4c1.5,2.4,4.1,4,7.1,4s5.6-1.6,7.1-4h0.4c2.3,0,4.2,1.9,4.2,4.2
					L41.1,47.1L41.1,47.1z M49.3,29.1v6h-2.8v-6h-6v-2.8h6v-6h2.8v6h6v2.8L49.3,29.1L49.3,29.1z"/>
			</g>
			<g id="Layer_6" class="st8">
				<path class="st1" d="M35,8.3C20.2,8.3,8.3,20.2,8.3,35s12,26.7,26.7,26.7s26.7-12,26.7-26.7S49.8,8.3,35,8.3z M29.6,22.3
					c4,0,7.2,3.2,7.2,7.2s-3.2,7.2-7.2,7.2s-7.2-3.2-7.2-7.2S25.6,22.3,29.6,22.3z M41.2,47.2c0,2.3-1.9,4.2-4.2,4.2H22.1
					c-2.3,0-4.2-1.9-4.2-4.2v-8.9c0-2.3,1.9-4.2,4.2-4.2h0.4c1.5,2.4,4.1,4,7.1,4s5.6-1.6,7.1-4H37c2.3,0,4.2,1.9,4.2,4.2L41.2,47.2
					L41.2,47.2z M40.7,29.3v-2.8H55v2.8H40.7z"/>
			</g>
			<g id="Layer_7" class="st8">
				<path class="st1" d="M35,8.3C20.2,8.3,8.3,20.2,8.3,35s12,26.7,26.7,26.7s26.7-12,26.7-26.7S49.8,8.3,35,8.3z M29.6,22.3
					c4,0,7.2,3.2,7.2,7.2s-3.2,7.2-7.2,7.2s-7.2-3.2-7.2-7.2S25.6,22.3,29.6,22.3z M41.2,47.2c0,2.3-1.9,4.2-4.2,4.2H22.1
					c-2.3,0-4.2-1.9-4.2-4.2v-8.9c0-2.3,1.9-4.2,4.2-4.2h0.4c1.5,2.4,4.1,4,7.1,4s5.6-1.6,7.1-4H37c2.3,0,4.2,1.9,4.2,4.2L41.2,47.2
					L41.2,47.2z M48.2,33l-2,2l-2-2l-4.8-4.8l2-2l4.8,4.8l8.1-8.1l2,2L48.2,33z"/>
			</g>
			<g id="Layer_8" class="st8">
				<g>
					<path class="st1" d="M35,8.3C20.2,8.3,8.3,20.2,8.3,35s12,26.7,26.7,26.7s26.7-12,26.7-26.7S49.8,8.3,35,8.3z M44.9,17.1
						c3,0,5.5,2.4,5.5,5.5S48,28,44.9,28c-3,0-5.5-2.4-5.5-5.5S41.9,17.1,44.9,17.1z M40.5,36.6c0,3-2.4,5.5-5.5,5.5
						s-5.5-2.4-5.5-5.5s2.4-5.5,5.5-5.5S40.5,33.6,40.5,36.6z M25.1,17.1c3,0,5.5,2.4,5.5,5.5S28.1,28,25.1,28s-5.5-2.4-5.5-5.5
						S22.1,17.1,25.1,17.1z M16.2,35.9v-6.7c0-1.7,1.4-3.2,3.2-3.2h0.3c1.1,1.8,3.1,3,5.4,3s4.3-1.2,5.4-3h0.3
						c1.7,0,3.2,1.4,3.2,3.2v1.3c-3,0.5-5.2,3.1-5.2,6.1c0,0.9,0.2,1.7,0.5,2.5h-9.8C17.7,39.1,16.2,37.7,16.2,35.9z M43.8,49.7
						c0,1.7-1.4,3.2-3.2,3.2H29.3c-1.7,0-3.2-1.4-3.2-3.2V43c0-1.7,1.4-3.2,3.2-3.2h0.3c1.1,1.8,3.1,3,5.4,3s4.3-1.2,5.4-3h0.3
						c1.7,0,3.2,1.4,3.2,3.2L43.8,49.7L43.8,49.7z M53.8,35.9c0,1.7-1.4,3.2-3.2,3.2h-9.8c0.3-0.8,0.5-1.6,0.5-2.5
						c0-3.1-2.2-5.6-5.2-6.1v-1.3c0-1.7,1.4-3.2,3.2-3.2h0.3c1.1,1.8,3.1,3,5.4,3s4.3-1.2,5.4-3h0.3c1.7,0,3.2,1.4,3.2,3.2
						L53.8,35.9C53.8,35.9,53.8,35.9,53.8,35.9z"/>
				</g>
			</g>
		</g>
	</g>
</g>
<circle class="st1" cx="35" cy="35" r="26.5"/>
<image style="overflow:visible;" width="512" height="512" xlink:href="../../../../../../../../Downloads/dollars-details-on-paper.png"  transform="matrix(5.379410e-02 0 0 5.379410e-02 21.2287 20.0954)">
</image>
</svg>
